<svg width="1200" height="780" viewBox="0 0 1200 780" fill="none" xmlns="http://www.w3.org/2000/svg">
  <rect width="1200" height="780" fill="#243B53"/>
  <rect x="70" y="130" width="540" height="430" rx="20" fill="#334E68"/>
  <rect x="112" y="170" width="456" height="56" rx="10" fill="#52606D"/>
  <rect x="112" y="250" width="456" height="56" rx="10" fill="#52606D"/>
  <rect x="112" y="330" width="456" height="56" rx="10" fill="#52606D"/>
  <rect x="112" y="410" width="456" height="56" rx="10" fill="#52606D"/>
  <rect x="660" y="190" width="470" height="390" rx="24" fill="#102A43"/>
  <rect x="720" y="500" width="350" height="40" rx="8" fill="#9F2B1F"/>
  <rect x="744" y="236" width="170" height="240" rx="12" fill="#D9E2EC"/>
  <rect x="932" y="236" width="150" height="240" rx="12" fill="#BCCCDC"/>
  <rect x="790" y="290" width="78" height="150" fill="#334E68"/>
  <rect x="978" y="316" width="58" height="124" fill="#52606D"/>
  <path d="M960 150C960 114.654 931.346 86 896 86C860.654 86 832 114.654 832 150V190H960V150Z" fill="#9F2B1F"/>
  <rect x="870" y="82" width="52" height="44" fill="#9F2B1F"/>
  <circle cx="220" cy="640" r="14" fill="#9F2B1F"/>
  <circle cx="260" cy="640" r="14" fill="#9F2B1F"/>
  <circle cx="300" cy="640" r="14" fill="#9F2B1F"/>
</svg>
